<mxfile host="app.diagrams.net" agent="Mozilla/5.0 (X11; Linux x86_64; rv:131.0) Gecko/20100101 Firefox/131.0" version="24.8.4">
  <diagram id="C5RBs43oDa-KdzZeNtuy" name="Page-1">
    <mxGraphModel dx="2977" dy="1387" grid="1" gridSize="10" guides="1" tooltips="1" connect="1" arrows="1" fold="1" page="1" pageScale="1" pageWidth="827" pageHeight="1169" math="0" shadow="0">
      <root>
        <mxCell id="WIyWlLk6GJQsqaUBKTNV-0" />
        <mxCell id="WIyWlLk6GJQsqaUBKTNV-1" parent="WIyWlLk6GJQsqaUBKTNV-0" />
        <mxCell id="S_oMJGFzTZTvN_zWF7Dp-0" value="Usuário" style="swimlane;fontStyle=2;align=center;verticalAlign=top;childLayout=stackLayout;horizontal=1;startSize=26;horizontalStack=0;resizeParent=1;resizeLast=0;collapsible=1;marginBottom=0;rounded=0;shadow=0;strokeWidth=1;" parent="WIyWlLk6GJQsqaUBKTNV-1" vertex="1">
          <mxGeometry x="300" y="385" width="160" height="235" as="geometry">
            <mxRectangle x="220" y="560" width="160" height="26" as="alternateBounds" />
          </mxGeometry>
        </mxCell>
        <mxCell id="S_oMJGFzTZTvN_zWF7Dp-1" value="# id: int" style="text;align=left;verticalAlign=top;spacingLeft=4;spacingRight=4;overflow=hidden;rotatable=0;points=[[0,0.5],[1,0.5]];portConstraint=eastwest;" parent="S_oMJGFzTZTvN_zWF7Dp-0" vertex="1">
          <mxGeometry y="26" width="160" height="26" as="geometry" />
        </mxCell>
        <mxCell id="S_oMJGFzTZTvN_zWF7Dp-2" value="- email: String" style="text;align=left;verticalAlign=top;spacingLeft=4;spacingRight=4;overflow=hidden;rotatable=0;points=[[0,0.5],[1,0.5]];portConstraint=eastwest;rounded=0;shadow=0;html=0;" parent="S_oMJGFzTZTvN_zWF7Dp-0" vertex="1">
          <mxGeometry y="52" width="160" height="26" as="geometry" />
        </mxCell>
        <mxCell id="S_oMJGFzTZTvN_zWF7Dp-3" value="- senha: String" style="text;align=left;verticalAlign=top;spacingLeft=4;spacingRight=4;overflow=hidden;rotatable=0;points=[[0,0.5],[1,0.5]];portConstraint=eastwest;rounded=0;shadow=0;html=0;" parent="S_oMJGFzTZTvN_zWF7Dp-0" vertex="1">
          <mxGeometry y="78" width="160" height="26" as="geometry" />
        </mxCell>
        <mxCell id="DpbTsIQylc1d4dhlNPRi-1" value="" style="endArrow=none;html=1;rounded=0;exitX=1;exitY=0.5;exitDx=0;exitDy=0;entryX=0.5;entryY=0;entryDx=0;entryDy=0;" parent="S_oMJGFzTZTvN_zWF7Dp-0" source="S_oMJGFzTZTvN_zWF7Dp-3" target="S_oMJGFzTZTvN_zWF7Dp-0" edge="1">
          <mxGeometry width="50" height="50" relative="1" as="geometry">
            <mxPoint x="190" y="100" as="sourcePoint" />
            <mxPoint x="240" y="50" as="targetPoint" />
            <Array as="points">
              <mxPoint x="220" y="91" />
              <mxPoint x="220" y="-40" />
              <mxPoint x="80" y="-40" />
            </Array>
          </mxGeometry>
        </mxCell>
        <mxCell id="DpbTsIQylc1d4dhlNPRi-2" value="administração" style="edgeLabel;html=1;align=center;verticalAlign=middle;resizable=0;points=[];" parent="DpbTsIQylc1d4dhlNPRi-1" vertex="1" connectable="0">
          <mxGeometry x="-0.1622" relative="1" as="geometry">
            <mxPoint x="40" y="-15" as="offset" />
          </mxGeometry>
        </mxCell>
        <mxCell id="DpbTsIQylc1d4dhlNPRi-4" value="- administrador" style="edgeLabel;html=1;align=center;verticalAlign=middle;resizable=0;points=[];" parent="DpbTsIQylc1d4dhlNPRi-1" vertex="1" connectable="0">
          <mxGeometry x="-0.9229" relative="1" as="geometry">
            <mxPoint x="26" y="9" as="offset" />
          </mxGeometry>
        </mxCell>
        <mxCell id="DpbTsIQylc1d4dhlNPRi-5" value="- usuário comum" style="edgeLabel;html=1;align=center;verticalAlign=middle;resizable=0;points=[];" parent="DpbTsIQylc1d4dhlNPRi-1" vertex="1" connectable="0">
          <mxGeometry x="0.873" y="-1" relative="1" as="geometry">
            <mxPoint x="11" y="-7" as="offset" />
          </mxGeometry>
        </mxCell>
        <mxCell id="DpbTsIQylc1d4dhlNPRi-6" value="0..*" style="edgeLabel;html=1;align=center;verticalAlign=middle;resizable=0;points=[];" parent="DpbTsIQylc1d4dhlNPRi-1" vertex="1" connectable="0">
          <mxGeometry x="0.9446" y="1" relative="1" as="geometry">
            <mxPoint x="-11" as="offset" />
          </mxGeometry>
        </mxCell>
        <mxCell id="DpbTsIQylc1d4dhlNPRi-7" value="- nomeDeUsuario: String" style="text;align=left;verticalAlign=top;spacingLeft=4;spacingRight=4;overflow=hidden;rotatable=0;points=[[0,0.5],[1,0.5]];portConstraint=eastwest;rounded=0;shadow=0;html=0;" parent="S_oMJGFzTZTvN_zWF7Dp-0" vertex="1">
          <mxGeometry y="104" width="160" height="26" as="geometry" />
        </mxCell>
        <mxCell id="DpbTsIQylc1d4dhlNPRi-19" value="- fotoDePerfil: Blob" style="text;align=left;verticalAlign=top;spacingLeft=4;spacingRight=4;overflow=hidden;rotatable=0;points=[[0,0.5],[1,0.5]];portConstraint=eastwest;rounded=0;shadow=0;html=0;" parent="S_oMJGFzTZTvN_zWF7Dp-0" vertex="1">
          <mxGeometry y="130" width="160" height="26" as="geometry" />
        </mxCell>
        <mxCell id="S_oMJGFzTZTvN_zWF7Dp-15" value="- biografia: String" style="text;align=left;verticalAlign=top;spacingLeft=4;spacingRight=4;overflow=hidden;rotatable=0;points=[[0,0.5],[1,0.5]];portConstraint=eastwest;rounded=0;shadow=0;html=0;" parent="S_oMJGFzTZTvN_zWF7Dp-0" vertex="1">
          <mxGeometry y="156" width="160" height="26" as="geometry" />
        </mxCell>
        <mxCell id="DpbTsIQylc1d4dhlNPRi-45" value="- seguindo: List&lt;Usuário&gt;" style="text;align=left;verticalAlign=top;spacingLeft=4;spacingRight=4;overflow=hidden;rotatable=0;points=[[0,0.5],[1,0.5]];portConstraint=eastwest;rounded=0;shadow=0;html=0;" parent="S_oMJGFzTZTvN_zWF7Dp-0" vertex="1">
          <mxGeometry y="182" width="160" height="26" as="geometry" />
        </mxCell>
        <mxCell id="DpbTsIQylc1d4dhlNPRi-8" value="Postagem" style="swimlane;fontStyle=2;align=center;verticalAlign=top;childLayout=stackLayout;horizontal=1;startSize=26;horizontalStack=0;resizeParent=1;resizeLast=0;collapsible=1;marginBottom=0;rounded=0;shadow=0;strokeWidth=1;" parent="WIyWlLk6GJQsqaUBKTNV-1" vertex="1">
          <mxGeometry x="-40" y="385" width="160" height="200" as="geometry">
            <mxRectangle x="220" y="560" width="160" height="26" as="alternateBounds" />
          </mxGeometry>
        </mxCell>
        <mxCell id="DpbTsIQylc1d4dhlNPRi-9" value="# id: int" style="text;align=left;verticalAlign=top;spacingLeft=4;spacingRight=4;overflow=hidden;rotatable=0;points=[[0,0.5],[1,0.5]];portConstraint=eastwest;" parent="DpbTsIQylc1d4dhlNPRi-8" vertex="1">
          <mxGeometry y="26" width="160" height="26" as="geometry" />
        </mxCell>
        <mxCell id="DpbTsIQylc1d4dhlNPRi-10" value="- text: String" style="text;align=left;verticalAlign=top;spacingLeft=4;spacingRight=4;overflow=hidden;rotatable=0;points=[[0,0.5],[1,0.5]];portConstraint=eastwest;rounded=0;shadow=0;html=0;" parent="DpbTsIQylc1d4dhlNPRi-8" vertex="1">
          <mxGeometry y="52" width="160" height="26" as="geometry" />
        </mxCell>
        <mxCell id="DpbTsIQylc1d4dhlNPRi-11" value="- data_criação: Date" style="text;align=left;verticalAlign=top;spacingLeft=4;spacingRight=4;overflow=hidden;rotatable=0;points=[[0,0.5],[1,0.5]];portConstraint=eastwest;rounded=0;shadow=0;html=0;" parent="DpbTsIQylc1d4dhlNPRi-8" vertex="1">
          <mxGeometry y="78" width="160" height="26" as="geometry" />
        </mxCell>
        <mxCell id="DpbTsIQylc1d4dhlNPRi-12" value="- curtirPostagem: Boolean" style="text;align=left;verticalAlign=top;spacingLeft=4;spacingRight=4;overflow=hidden;rotatable=0;points=[[0,0.5],[1,0.5]];portConstraint=eastwest;rounded=0;shadow=0;html=0;" parent="DpbTsIQylc1d4dhlNPRi-8" vertex="1">
          <mxGeometry y="104" width="160" height="26" as="geometry" />
        </mxCell>
        <mxCell id="DpbTsIQylc1d4dhlNPRi-24" value="- numeroDeCurtidas: int" style="text;align=left;verticalAlign=top;spacingLeft=4;spacingRight=4;overflow=hidden;rotatable=0;points=[[0,0.5],[1,0.5]];portConstraint=eastwest;rounded=0;shadow=0;html=0;" parent="DpbTsIQylc1d4dhlNPRi-8" vertex="1">
          <mxGeometry y="130" width="160" height="26" as="geometry" />
        </mxCell>
        <mxCell id="DpbTsIQylc1d4dhlNPRi-25" value="- autor: Usuário" style="text;align=left;verticalAlign=top;spacingLeft=4;spacingRight=4;overflow=hidden;rotatable=0;points=[[0,0.5],[1,0.5]];portConstraint=eastwest;rounded=0;shadow=0;html=0;" parent="DpbTsIQylc1d4dhlNPRi-8" vertex="1">
          <mxGeometry y="156" width="160" height="26" as="geometry" />
        </mxCell>
        <mxCell id="DpbTsIQylc1d4dhlNPRi-20" style="edgeStyle=orthogonalEdgeStyle;rounded=0;orthogonalLoop=1;jettySize=auto;html=1;entryX=-0.004;entryY=0.848;entryDx=0;entryDy=0;entryPerimeter=0;startArrow=classic;startFill=1;endArrow=none;endFill=0;" parent="WIyWlLk6GJQsqaUBKTNV-1" source="DpbTsIQylc1d4dhlNPRi-8" target="S_oMJGFzTZTvN_zWF7Dp-3" edge="1">
          <mxGeometry relative="1" as="geometry" />
        </mxCell>
        <mxCell id="DpbTsIQylc1d4dhlNPRi-21" value="1..1" style="edgeLabel;html=1;align=center;verticalAlign=middle;resizable=0;points=[];" parent="DpbTsIQylc1d4dhlNPRi-20" vertex="1" connectable="0">
          <mxGeometry x="-0.6915" y="1" relative="1" as="geometry">
            <mxPoint x="-7" y="-8" as="offset" />
          </mxGeometry>
        </mxCell>
        <mxCell id="DpbTsIQylc1d4dhlNPRi-22" value="0..*" style="edgeLabel;html=1;align=center;verticalAlign=middle;resizable=0;points=[];" parent="DpbTsIQylc1d4dhlNPRi-20" vertex="1" connectable="0">
          <mxGeometry x="0.7814" y="1" relative="1" as="geometry">
            <mxPoint x="3" y="-9" as="offset" />
          </mxGeometry>
        </mxCell>
        <mxCell id="DpbTsIQylc1d4dhlNPRi-23" value="envia" style="edgeLabel;html=1;align=center;verticalAlign=middle;resizable=0;points=[];" parent="DpbTsIQylc1d4dhlNPRi-20" vertex="1" connectable="0">
          <mxGeometry x="-0.027" relative="1" as="geometry">
            <mxPoint y="-10" as="offset" />
          </mxGeometry>
        </mxCell>
        <mxCell id="DpbTsIQylc1d4dhlNPRi-26" value="Cadastro" style="swimlane;fontStyle=2;align=center;verticalAlign=top;childLayout=stackLayout;horizontal=1;startSize=26;horizontalStack=0;resizeParent=1;resizeLast=0;collapsible=1;marginBottom=0;rounded=0;shadow=0;strokeWidth=1;" parent="WIyWlLk6GJQsqaUBKTNV-1" vertex="1">
          <mxGeometry x="300" y="106" width="160" height="200" as="geometry">
            <mxRectangle x="220" y="560" width="160" height="26" as="alternateBounds" />
          </mxGeometry>
        </mxCell>
        <mxCell id="DpbTsIQylc1d4dhlNPRi-27" value="# id: int" style="text;align=left;verticalAlign=top;spacingLeft=4;spacingRight=4;overflow=hidden;rotatable=0;points=[[0,0.5],[1,0.5]];portConstraint=eastwest;" parent="DpbTsIQylc1d4dhlNPRi-26" vertex="1">
          <mxGeometry y="26" width="160" height="26" as="geometry" />
        </mxCell>
        <mxCell id="DpbTsIQylc1d4dhlNPRi-28" value="- email: String" style="text;align=left;verticalAlign=top;spacingLeft=4;spacingRight=4;overflow=hidden;rotatable=0;points=[[0,0.5],[1,0.5]];portConstraint=eastwest;rounded=0;shadow=0;html=0;" parent="DpbTsIQylc1d4dhlNPRi-26" vertex="1">
          <mxGeometry y="52" width="160" height="26" as="geometry" />
        </mxCell>
        <mxCell id="DpbTsIQylc1d4dhlNPRi-29" value="- senha: String" style="text;align=left;verticalAlign=top;spacingLeft=4;spacingRight=4;overflow=hidden;rotatable=0;points=[[0,0.5],[1,0.5]];portConstraint=eastwest;rounded=0;shadow=0;html=0;" parent="DpbTsIQylc1d4dhlNPRi-26" vertex="1">
          <mxGeometry y="78" width="160" height="26" as="geometry" />
        </mxCell>
        <mxCell id="DpbTsIQylc1d4dhlNPRi-36" value="- nomeDeUsuario: String" style="text;align=left;verticalAlign=top;spacingLeft=4;spacingRight=4;overflow=hidden;rotatable=0;points=[[0,0.5],[1,0.5]];portConstraint=eastwest;rounded=0;shadow=0;html=0;" parent="DpbTsIQylc1d4dhlNPRi-26" vertex="1">
          <mxGeometry y="104" width="160" height="26" as="geometry" />
        </mxCell>
        <mxCell id="DpbTsIQylc1d4dhlNPRi-38" value="" style="endArrow=none;html=1;rounded=0;entryX=0.25;entryY=1;entryDx=0;entryDy=0;exitX=0.25;exitY=0;exitDx=0;exitDy=0;" parent="WIyWlLk6GJQsqaUBKTNV-1" source="S_oMJGFzTZTvN_zWF7Dp-0" target="DpbTsIQylc1d4dhlNPRi-26" edge="1">
          <mxGeometry width="50" height="50" relative="1" as="geometry">
            <mxPoint x="300" y="370" as="sourcePoint" />
            <mxPoint x="300" y="300" as="targetPoint" />
          </mxGeometry>
        </mxCell>
        <mxCell id="DpbTsIQylc1d4dhlNPRi-39" value="1..1" style="edgeLabel;html=1;align=center;verticalAlign=middle;resizable=0;points=[];" parent="DpbTsIQylc1d4dhlNPRi-38" vertex="1" connectable="0">
          <mxGeometry x="0.3501" relative="1" as="geometry">
            <mxPoint x="-20" y="-12" as="offset" />
          </mxGeometry>
        </mxCell>
        <mxCell id="DpbTsIQylc1d4dhlNPRi-47" value="- seguidores: List&lt;Usuário&gt;" style="text;align=left;verticalAlign=top;spacingLeft=4;spacingRight=4;overflow=hidden;rotatable=0;points=[[0,0.5],[1,0.5]];portConstraint=eastwest;rounded=0;shadow=0;html=0;" parent="WIyWlLk6GJQsqaUBKTNV-1" vertex="1">
          <mxGeometry x="300" y="593" width="160" height="26" as="geometry" />
        </mxCell>
        <mxCell id="DpbTsIQylc1d4dhlNPRi-48" value="Homepage" style="swimlane;fontStyle=2;align=center;verticalAlign=top;childLayout=stackLayout;horizontal=1;startSize=26;horizontalStack=0;resizeParent=1;resizeLast=0;collapsible=1;marginBottom=0;rounded=0;shadow=0;strokeWidth=1;" parent="WIyWlLk6GJQsqaUBKTNV-1" vertex="1">
          <mxGeometry x="130" y="680" width="170" height="80" as="geometry">
            <mxRectangle x="220" y="560" width="160" height="26" as="alternateBounds" />
          </mxGeometry>
        </mxCell>
        <mxCell id="DpbTsIQylc1d4dhlNPRi-49" value="- Usuário: Usuário" style="text;align=left;verticalAlign=top;spacingLeft=4;spacingRight=4;overflow=hidden;rotatable=0;points=[[0,0.5],[1,0.5]];portConstraint=eastwest;" parent="DpbTsIQylc1d4dhlNPRi-48" vertex="1">
          <mxGeometry y="26" width="170" height="26" as="geometry" />
        </mxCell>
        <mxCell id="DpbTsIQylc1d4dhlNPRi-61" value="- postagens: List&lt;Postagem&gt;" style="text;align=left;verticalAlign=top;spacingLeft=4;spacingRight=4;overflow=hidden;rotatable=0;points=[[0,0.5],[1,0.5]];portConstraint=eastwest;" parent="DpbTsIQylc1d4dhlNPRi-48" vertex="1">
          <mxGeometry y="52" width="170" height="26" as="geometry" />
        </mxCell>
        <mxCell id="GbrQn4fpmQiTkbEIg9Ye-0" style="edgeStyle=orthogonalEdgeStyle;rounded=0;orthogonalLoop=1;jettySize=auto;html=1;entryX=1.011;entryY=0.82;entryDx=0;entryDy=0;entryPerimeter=0;" edge="1" parent="WIyWlLk6GJQsqaUBKTNV-1" source="S_oMJGFzTZTvN_zWF7Dp-0" target="DpbTsIQylc1d4dhlNPRi-49">
          <mxGeometry relative="1" as="geometry" />
        </mxCell>
        <mxCell id="GbrQn4fpmQiTkbEIg9Ye-1" value="1..1" style="edgeLabel;html=1;align=center;verticalAlign=middle;resizable=0;points=[];" vertex="1" connectable="0" parent="GbrQn4fpmQiTkbEIg9Ye-0">
          <mxGeometry x="-0.6937" relative="1" as="geometry">
            <mxPoint x="10" y="-18" as="offset" />
          </mxGeometry>
        </mxCell>
        <mxCell id="GbrQn4fpmQiTkbEIg9Ye-2" style="edgeStyle=orthogonalEdgeStyle;rounded=0;orthogonalLoop=1;jettySize=auto;html=1;entryX=0.5;entryY=1;entryDx=0;entryDy=0;" edge="1" parent="WIyWlLk6GJQsqaUBKTNV-1" source="DpbTsIQylc1d4dhlNPRi-49" target="DpbTsIQylc1d4dhlNPRi-8">
          <mxGeometry relative="1" as="geometry" />
        </mxCell>
        <mxCell id="GbrQn4fpmQiTkbEIg9Ye-3" value="0..*" style="edgeLabel;html=1;align=center;verticalAlign=middle;resizable=0;points=[];" vertex="1" connectable="0" parent="GbrQn4fpmQiTkbEIg9Ye-2">
          <mxGeometry x="-0.8661" relative="1" as="geometry">
            <mxPoint x="5" y="-9" as="offset" />
          </mxGeometry>
        </mxCell>
      </root>
    </mxGraphModel>
  </diagram>
</mxfile>
